<svg xmlns="http://www.w3.org/2000/svg" viewBox="0 0 512 512" role="img" aria-label="BabyGoon">
  <defs>
    <linearGradient id="bg" x1="0" y1="0" x2="1" y2="1">
      <stop offset="0" stop-color="#0f101a" />
      <stop offset="1" stop-color="#2b0f2b" />
    </linearGradient>
    <radialGradient id="glow" cx="0.35" cy="0.2" r="0.8">
      <stop offset="0" stop-color="#f3a712" stop-opacity="0.9" />
      <stop offset="1" stop-color="#f3a712" stop-opacity="0" />
    </radialGradient>
  </defs>
  <rect width="512" height="512" rx="96" fill="url(#bg)" />
  <rect width="512" height="512" rx="96" fill="url(#glow)" />
  <g transform="translate(256 256)">
    <circle r="172" fill="#fdfaf4" stroke="#ffffff" stroke-width="20" />
    <circle r="36" fill="#f3a712" />
    <g fill="#1b1207" opacity="0.8">
      <path d="M0 -172 L16 -102 L0 -86 L-16 -102 Z" />
      <path d="M148 -86 L92 -64 L86 -86 L102 -148 Z" />
      <path d="M172 0 L102 16 L86 0 L102 -16 Z" />
      <path d="M148 86 L102 148 L86 86 L92 64 Z" />
      <path d="M0 172 L-16 102 L0 86 L16 102 Z" />
      <path d="M-148 86 L-92 64 L-86 86 L-102 148 Z" />
      <path d="M-172 0 L-102 -16 L-86 0 L-102 16 Z" />
      <path d="M-148 -86 L-102 -148 L-86 -86 L-92 -64 Z" />
    </g>
  </g>
</svg>
